<svg width="34" height="45" viewBox="0 0 34 45" fill="none" xmlns="http://www.w3.org/2000/svg">
<path d="M30.9633 25.1289L30.0875 24.4057L30.9158 23.6285L31.4296 23.1464C33.1137 21.5663 33.1137 18.8924 31.4297 17.3123L30.9158 16.8302L30.1385 16.1009L30.9158 15.3717L31.2201 15.0861C32.9649 13.449 32.8918 10.6566 31.0639 9.11299L31.5714 8.5119L31.0639 9.11298L30.9548 9.0209L30.1367 8.33005L30.8818 7.56103L32.0984 6.30536C33.2739 5.09211 33.2739 3.16477 32.0984 1.95153C31.5091 1.34332 30.6985 1 29.8516 1H11.8657C10.9031 1 9.97274 1.34713 9.24541 1.9777L1.34494 8.82719C1.12585 9.01714 1 9.29282 1 9.58277V26.3722C1 26.7645 1.22935 27.1205 1.58651 27.2827L7.48093 29.9596C9.62391 30.9328 11 33.069 11 35.4226V41.2324C11 42.7609 12.2391 44 13.7676 44C15.0681 44 16.1933 43.0944 16.4712 41.8239L18.2791 33.5607C18.5804 32.1834 19.8 31.2018 21.2097 31.2018H29.7579C30.6418 31.2018 31.483 30.8218 32.0672 30.1585C33.216 28.8542 33.0575 26.8581 31.7172 25.7514L30.9633 25.1289Z" fill="#EB7960" stroke="#EB7960" stroke-width="2"/>
</svg>
