<svg width="34" height="45" viewBox="0 0 34 45" fill="none" xmlns="http://www.w3.org/2000/svg">
<path d="M30.9633 19.8711L30.0875 20.5943L30.9158 21.3715L31.4296 21.8536C33.1137 23.4337 33.1137 26.1076 31.4297 27.6877L30.9158 28.1698L30.1385 28.8991L30.9158 29.6283L31.2201 29.9139C32.9649 31.551 32.8918 34.3434 31.0639 35.887L31.5714 36.4881L31.0639 35.887L30.9548 35.9791L30.1367 36.67L30.8818 37.439L32.0984 38.6946C33.2739 39.9079 33.2739 41.8352 32.0984 43.0485C31.5091 43.6567 30.6985 44 29.8516 44H11.8657C10.9031 44 9.97274 43.6529 9.24541 43.0223L1.34494 36.1728C1.12585 35.9829 1 35.7072 1 35.4172V18.6278C1 18.2355 1.22935 17.8795 1.58651 17.7173L7.48093 15.0404C9.62391 14.0672 11 11.931 11 9.57738V3.76758C11 2.23909 12.2391 1 13.7676 1C15.0681 1 16.1933 1.90556 16.4712 3.17608L18.2791 11.4393C18.5804 12.8166 19.8 13.7982 21.2097 13.7982H29.7579C30.6418 13.7982 31.483 14.1782 32.0672 14.8415C33.216 16.1458 33.0575 18.1419 31.7172 19.2486L30.9633 19.8711Z" stroke="#7D81D6" stroke-width="2"/>
</svg>
